<svg xmlns="http://www.w3.org/2000/svg" viewBox="0 0 800 800" width="200" height="200"><g stroke-width="3.5" fill="currentColor"><circle r="4.289"/><circle r="4.289" cx="66.667"/><circle r="4.289" cx="133.333"/><circle r="4.289" cx="200"/><circle r="4.289" cx="266.667"/><circle r="4.289" cx="333.333"/><circle r="4.289" cx="400"/><circle r="4.289" cx="466.667"/><circle r="4.289" cx="533.333"/><circle r="4.289" cx="600"/><circle r="4.289" cx="666.667"/><circle r="4.289" cx="733.333"/><circle r="4.289" cx="800"/><circle r="4.289" cy="66.667"/><circle r="4.289" cx="66.667" cy="66.667"/><circle r="4.289" cx="133.333" cy="66.667"/><circle r="4.289" cx="200" cy="66.667"/><circle r="4.289" cx="266.667" cy="66.667"/><circle r="4.289" cx="333.333" cy="66.667"/><circle r="4.289" cx="400" cy="66.667"/><circle r="4.289" cx="466.667" cy="66.667"/><circle r="4.289" cx="533.333" cy="66.667"/><circle r="4.289" cx="600" cy="66.667"/><circle r="4.289" cx="666.667" cy="66.667"/><circle r="4.289" cx="733.333" cy="66.667"/><circle r="4.289" cx="800" cy="66.667"/><circle r="4.289" cy="133.333"/><circle r="4.289" cx="66.667" cy="133.333"/><circle r="4.289" cx="133.333" cy="133.333"/><circle r="4.289" cx="200" cy="133.333"/><circle r="4.289" cx="266.667" cy="133.333"/><circle r="4.289" cx="333.333" cy="133.333"/><circle r="4.289" cx="400" cy="133.333"/><circle r="4.289" cx="466.667" cy="133.333"/><circle r="4.289" cx="533.333" cy="133.333"/><circle r="4.289" cx="600" cy="133.333"/><circle r="4.289" cx="666.667" cy="133.333"/><circle r="4.289" cx="733.333" cy="133.333"/><circle r="4.289" cx="800" cy="133.333"/><circle r="4.289" cy="200"/><circle r="4.289" cx="66.667" cy="200"/><circle r="4.289" cx="133.333" cy="200"/><circle r="4.289" cx="200" cy="200"/><circle r="4.289" cx="266.667" cy="200"/><circle r="4.289" cx="333.333" cy="200"/><circle r="4.289" cx="400" cy="200"/><circle r="4.289" cx="466.667" cy="200"/><circle r="4.289" cx="533.333" cy="200"/><circle r="4.289" cx="600" cy="200"/><circle r="4.289" cx="666.667" cy="200"/><circle r="4.289" cx="733.333" cy="200"/><circle r="4.289" cx="800" cy="200"/><circle r="4.289" cy="266.667"/><circle r="4.289" cx="66.667" cy="266.667"/><circle r="4.289" cx="133.333" cy="266.667"/><circle r="4.289" cx="200" cy="266.667"/><circle r="4.289" cx="266.667" cy="266.667"/><circle r="4.289" cx="333.333" cy="266.667"/><circle r="4.289" cx="400" cy="266.667"/><circle r="4.289" cx="466.667" cy="266.667"/><circle r="4.289" cx="533.333" cy="266.667"/><circle r="4.289" cx="600" cy="266.667"/><circle r="4.289" cx="666.667" cy="266.667"/><circle r="4.289" cx="733.333" cy="266.667"/><circle r="4.289" cx="800" cy="266.667"/><circle r="4.289" cy="333.333"/><circle r="4.289" cx="66.667" cy="333.333"/><circle r="4.289" cx="133.333" cy="333.333"/><circle r="4.289" cx="200" cy="333.333"/><circle r="4.289" cx="266.667" cy="333.333"/><circle r="4.289" cx="333.333" cy="333.333"/><circle r="4.289" cx="400" cy="333.333"/><circle r="4.289" cx="466.667" cy="333.333"/><circle r="4.289" cx="533.333" cy="333.333"/><circle r="4.289" cx="600" cy="333.333"/><circle r="4.289" cx="666.667" cy="333.333"/><circle r="4.289" cx="733.333" cy="333.333"/><circle r="4.289" cx="800" cy="333.333"/><circle r="4.289" cy="400"/><circle r="4.289" cx="66.667" cy="400"/><circle r="4.289" cx="133.333" cy="400"/><circle r="4.289" cx="200" cy="400"/><circle r="4.289" cx="266.667" cy="400"/><circle r="4.289" cx="333.333" cy="400"/><circle r="4.289" cx="400" cy="400"/><circle r="4.289" cx="466.667" cy="400"/><circle r="4.289" cx="533.333" cy="400"/><circle r="4.289" cx="600" cy="400"/><circle r="4.289" cx="666.667" cy="400"/><circle r="4.289" cx="733.333" cy="400"/><circle r="4.289" cx="800" cy="400"/><circle r="4.289" cy="466.667"/><circle r="4.289" cx="66.667" cy="466.667"/><circle r="4.289" cx="133.333" cy="466.667"/><circle r="4.289" cx="200" cy="466.667"/><circle r="4.289" cx="266.667" cy="466.667"/><circle r="4.289" cx="333.333" cy="466.667"/><circle r="4.289" cx="400" cy="466.667"/><circle r="4.289" cx="466.667" cy="466.667"/><circle r="4.289" cx="533.333" cy="466.667"/><circle r="4.289" cx="600" cy="466.667"/><circle r="4.289" cx="666.667" cy="466.667"/><circle r="4.289" cx="733.333" cy="466.667"/><circle r="4.289" cx="800" cy="466.667"/><circle r="4.289" cy="533.333"/><circle r="4.289" cx="66.667" cy="533.333"/><circle r="4.289" cx="133.333" cy="533.333"/><circle r="4.289" cx="200" cy="533.333"/><circle r="4.289" cx="266.667" cy="533.333"/><circle r="4.289" cx="333.333" cy="533.333"/><circle r="4.289" cx="400" cy="533.333"/><circle r="4.289" cx="466.667" cy="533.333"/><circle r="4.289" cx="533.333" cy="533.333"/><circle r="4.289" cx="600" cy="533.333"/><circle r="4.289" cx="666.667" cy="533.333"/><circle r="4.289" cx="733.333" cy="533.333"/><circle r="4.289" cx="800" cy="533.333"/><circle r="4.289" cy="600"/><circle r="4.289" cx="66.667" cy="600"/><circle r="4.289" cx="133.333" cy="600"/><circle r="4.289" cx="200" cy="600"/><circle r="4.289" cx="266.667" cy="600"/><circle r="4.289" cx="333.333" cy="600"/><circle r="4.289" cx="400" cy="600"/><circle r="4.289" cx="466.667" cy="600"/><circle r="4.289" cx="533.333" cy="600"/><circle r="4.289" cx="600" cy="600"/><circle r="4.289" cx="666.667" cy="600"/><circle r="4.289" cx="733.333" cy="600"/><circle r="4.289" cx="800" cy="600"/><circle r="4.289" cy="666.667"/><circle r="4.289" cx="66.667" cy="666.667"/><circle r="4.289" cx="133.333" cy="666.667"/><circle r="4.289" cx="200" cy="666.667"/><circle r="4.289" cx="266.667" cy="666.667"/><circle r="4.289" cx="333.333" cy="666.667"/><circle r="4.289" cx="400" cy="666.667"/><circle r="4.289" cx="466.667" cy="666.667"/><circle r="4.289" cx="533.333" cy="666.667"/><circle r="4.289" cx="600" cy="666.667"/><circle r="4.289" cx="666.667" cy="666.667"/><circle r="4.289" cx="733.333" cy="666.667"/><circle r="4.289" cx="800" cy="666.667"/><circle r="4.289" cy="733.333"/><circle r="4.289" cx="66.667" cy="733.333"/><circle r="4.289" cx="133.333" cy="733.333"/><circle r="4.289" cx="200" cy="733.333"/><circle r="4.289" cx="266.667" cy="733.333"/><circle r="4.289" cx="333.333" cy="733.333"/><circle r="4.289" cx="400" cy="733.333"/><circle r="4.289" cx="466.667" cy="733.333"/><circle r="4.289" cx="533.333" cy="733.333"/><circle r="4.289" cx="600" cy="733.333"/><circle r="4.289" cx="666.667" cy="733.333"/><circle r="4.289" cx="733.333" cy="733.333"/><circle r="4.289" cx="800" cy="733.333"/><circle r="4.289" cy="800"/><circle r="4.289" cx="66.667" cy="800"/><circle r="4.289" cx="133.333" cy="800"/><circle r="4.289" cx="200" cy="800"/><circle r="4.289" cx="266.667" cy="800"/><circle r="4.289" cx="333.333" cy="800"/><circle r="4.289" cx="400" cy="800"/><circle r="4.289" cx="466.667" cy="800"/><circle r="4.289" cx="533.333" cy="800"/><circle r="4.289" cx="600" cy="800"/><circle r="4.289" cx="666.667" cy="800"/><circle r="4.289" cx="733.333" cy="800"/><circle r="4.289" cx="800" cy="800"/></g></svg>